<?xml version="1.0" standalone="no"?><!DOCTYPE svg PUBLIC "-//W3C//DTD SVG 1.1//EN" "http://www.w3.org/Graphics/SVG/1.1/DTD/svg11.dtd"><svg t="1528686117594" class="icon" style="" viewBox="0 0 1024 1024" version="1.1" xmlns="http://www.w3.org/2000/svg" p-id="4802" xmlns:xlink="http://www.w3.org/1999/xlink" width="200" height="200"><defs><style type="text/css"></style></defs><path d="M459.266 459.266h-316.406c-29.268 0-52.734 23.625-52.734 52.734 0 29.32 23.625 52.734 52.734 52.734h316.406v316.406c0 29.268 23.625 52.734 52.734 52.734 29.32 0 52.734-23.625 52.734-52.734v-316.406h316.406c29.268 0 52.734-23.625 52.734-52.734 0-29.32-23.625-52.734-52.734-52.734h-316.406v-316.406c0-29.268-23.625-52.734-52.734-52.734-29.32 0-52.734 23.625-52.734 52.734v316.406z" p-id="4803"></path></svg>