<?xml version="1.0" standalone="no"?><!DOCTYPE svg PUBLIC "-//W3C//DTD SVG 1.1//EN" "http://www.w3.org/Graphics/SVG/1.1/DTD/svg11.dtd"><svg class="icon" width="200px" height="183.35px" viewBox="0 0 1117 1024" version="1.1" xmlns="http://www.w3.org/2000/svg"><path fill="#333333" d="M986.763636 0C1058.722909 0 1117.090909 75.031273 1117.090909 167.563636v688.872728c0 92.532364-58.368 167.563636-130.327273 167.563636H130.327273C58.368 1024 0 948.968727 0 856.436364V167.563636C0 75.031273 58.368 0 130.327273 0h856.436363z m-61.672727 791.272727C956.509091 791.272727 977.454545 759.063273 977.454545 726.807273c0-32.209455-20.945455-53.666909-52.363636-53.666909-36.677818 0-73.309091-85.969455-99.514182-155.787637C778.472727 393.867636 715.636364 232.727273 558.545455 232.727273s-214.667636 155.741091-267.031273 284.625454c-31.464727 75.217455-62.836364 161.140364-99.514182 161.140364-31.418182 0-52.363636 21.457455-52.363636 53.713454 0 32.209455 20.945455 53.713455 52.363636 53.713455 109.940364 0 157.090909-112.779636 198.981818-225.605818C443.345455 431.476364 479.976727 345.506909 558.545455 345.506909c78.568727 0 120.413091 91.322182 172.776727 220.16 41.890909 112.826182 89.041455 225.605818 193.768727 225.605818z" /></svg>